<mxfile host="65bd71144e">
    <diagram name="Page-1" id="vYjQ25ntYQRkclkcvKuf">
        <mxGraphModel dx="1016" dy="756" grid="1" gridSize="10" guides="1" tooltips="1" connect="1" arrows="1" fold="1" page="1" pageScale="1" pageWidth="10000" pageHeight="10000" math="0" shadow="0">
            <root>
                <mxCell id="0"/>
                <mxCell id="1" parent="0"/>
                <mxCell id="LfXdkUzR0KYtuj1hgcs3-33" style="edgeStyle=orthogonalEdgeStyle;rounded=0;orthogonalLoop=1;jettySize=auto;html=1;exitX=1;exitY=0.5;exitDx=0;exitDy=0;entryX=0;entryY=0.5;entryDx=0;entryDy=0;" parent="1" source="LfXdkUzR0KYtuj1hgcs3-1" target="LfXdkUzR0KYtuj1hgcs3-16" edge="1">
                    <mxGeometry relative="1" as="geometry"/>
                </mxCell>
                <mxCell id="LfXdkUzR0KYtuj1hgcs3-42" style="edgeStyle=orthogonalEdgeStyle;rounded=0;orthogonalLoop=1;jettySize=auto;html=1;exitX=0;exitY=0.5;exitDx=0;exitDy=0;entryX=1;entryY=0.5;entryDx=0;entryDy=0;" parent="1" source="LfXdkUzR0KYtuj1hgcs3-1" target="LfXdkUzR0KYtuj1hgcs3-14" edge="1">
                    <mxGeometry relative="1" as="geometry"/>
                </mxCell>
                <mxCell id="15" style="edgeStyle=none;rounded=1;html=1;exitX=0.5;exitY=0;exitDx=0;exitDy=0;entryX=0.5;entryY=1;entryDx=0;entryDy=0;" parent="1" source="LfXdkUzR0KYtuj1hgcs3-1" target="11" edge="1">
                    <mxGeometry relative="1" as="geometry"/>
                </mxCell>
                <mxCell id="LfXdkUzR0KYtuj1hgcs3-1" value="MAIN" style="rounded=1;whiteSpace=wrap;html=1;" parent="1" vertex="1">
                    <mxGeometry x="365" y="520" width="120" height="60" as="geometry"/>
                </mxCell>
                <mxCell id="LfXdkUzR0KYtuj1hgcs3-58" style="edgeStyle=orthogonalEdgeStyle;rounded=0;orthogonalLoop=1;jettySize=auto;html=1;entryX=0.5;entryY=1;entryDx=0;entryDy=0;" parent="1" source="LfXdkUzR0KYtuj1hgcs3-2" target="LfXdkUzR0KYtuj1hgcs3-11" edge="1">
                    <mxGeometry relative="1" as="geometry"/>
                </mxCell>
                <mxCell id="LfXdkUzR0KYtuj1hgcs3-2" value="IMU" style="rounded=1;whiteSpace=wrap;html=1;" parent="1" vertex="1">
                    <mxGeometry x="365" y="740" width="120" height="60" as="geometry"/>
                </mxCell>
                <mxCell id="LfXdkUzR0KYtuj1hgcs3-57" style="edgeStyle=orthogonalEdgeStyle;rounded=0;orthogonalLoop=1;jettySize=auto;html=1;exitX=0.5;exitY=0;exitDx=0;exitDy=0;entryX=0.5;entryY=1;entryDx=0;entryDy=0;" parent="1" source="LfXdkUzR0KYtuj1hgcs3-4" target="LfXdkUzR0KYtuj1hgcs3-10" edge="1">
                    <mxGeometry relative="1" as="geometry"/>
                </mxCell>
                <mxCell id="LfXdkUzR0KYtuj1hgcs3-4" value="GPS" style="rounded=1;whiteSpace=wrap;html=1;" parent="1" vertex="1">
                    <mxGeometry x="190" y="740" width="120" height="60" as="geometry"/>
                </mxCell>
                <mxCell id="LfXdkUzR0KYtuj1hgcs3-5" value="RF" style="rounded=1;whiteSpace=wrap;html=1;" parent="1" vertex="1">
                    <mxGeometry x="40" y="520" width="120" height="60" as="geometry"/>
                </mxCell>
                <mxCell id="LfXdkUzR0KYtuj1hgcs3-56" style="edgeStyle=orthogonalEdgeStyle;rounded=0;orthogonalLoop=1;jettySize=auto;html=1;exitX=0.5;exitY=1;exitDx=0;exitDy=0;entryX=0.5;entryY=0;entryDx=0;entryDy=0;" parent="1" source="LfXdkUzR0KYtuj1hgcs3-6" target="LfXdkUzR0KYtuj1hgcs3-13" edge="1">
                    <mxGeometry relative="1" as="geometry"/>
                </mxCell>
                <mxCell id="LfXdkUzR0KYtuj1hgcs3-6" value="Display" style="rounded=1;whiteSpace=wrap;html=1;" parent="1" vertex="1">
                    <mxGeometry x="540" y="280" width="120" height="60" as="geometry"/>
                </mxCell>
                <mxCell id="LfXdkUzR0KYtuj1hgcs3-7" value="Logging" style="rounded=1;whiteSpace=wrap;html=1;" parent="1" vertex="1">
                    <mxGeometry x="40" y="280" width="120" height="60" as="geometry"/>
                </mxCell>
                <mxCell id="12" style="edgeStyle=none;rounded=0;html=1;exitX=0.5;exitY=1;exitDx=0;exitDy=0;entryX=0.5;entryY=0;entryDx=0;entryDy=0;" parent="1" source="LfXdkUzR0KYtuj1hgcs3-8" target="LfXdkUzR0KYtuj1hgcs3-15" edge="1">
                    <mxGeometry relative="1" as="geometry"/>
                </mxCell>
                <mxCell id="LfXdkUzR0KYtuj1hgcs3-8" value="CAN RX" style="rounded=1;whiteSpace=wrap;html=1;" parent="1" vertex="1">
                    <mxGeometry x="190" y="280" width="120" height="60" as="geometry"/>
                </mxCell>
                <mxCell id="LfXdkUzR0KYtuj1hgcs3-40" style="edgeStyle=orthogonalEdgeStyle;orthogonalLoop=1;jettySize=auto;html=1;exitX=1;exitY=0.5;exitDx=0;exitDy=0;entryX=0;entryY=0.75;entryDx=0;entryDy=0;rounded=1;" parent="1" source="LfXdkUzR0KYtuj1hgcs3-10" target="LfXdkUzR0KYtuj1hgcs3-1" edge="1">
                    <mxGeometry relative="1" as="geometry"/>
                </mxCell>
                <mxCell id="LfXdkUzR0KYtuj1hgcs3-10" value="GPS Data" style="ellipse;whiteSpace=wrap;html=1;aspect=fixed;" parent="1" vertex="1">
                    <mxGeometry x="210" y="620" width="80" height="80" as="geometry"/>
                </mxCell>
                <mxCell id="LfXdkUzR0KYtuj1hgcs3-29" style="edgeStyle=orthogonalEdgeStyle;rounded=0;orthogonalLoop=1;jettySize=auto;html=1;exitX=0.5;exitY=0;exitDx=0;exitDy=0;entryX=0.5;entryY=1;entryDx=0;entryDy=0;" parent="1" source="LfXdkUzR0KYtuj1hgcs3-11" target="LfXdkUzR0KYtuj1hgcs3-1" edge="1">
                    <mxGeometry relative="1" as="geometry"/>
                </mxCell>
                <mxCell id="LfXdkUzR0KYtuj1hgcs3-11" value="IMU data" style="ellipse;whiteSpace=wrap;html=1;aspect=fixed;" parent="1" vertex="1">
                    <mxGeometry x="385" y="620" width="80" height="80" as="geometry"/>
                </mxCell>
                <mxCell id="LfXdkUzR0KYtuj1hgcs3-36" style="edgeStyle=orthogonalEdgeStyle;orthogonalLoop=1;jettySize=auto;html=1;exitX=0;exitY=0.5;exitDx=0;exitDy=0;entryX=0.75;entryY=0;entryDx=0;entryDy=0;rounded=1;" parent="1" source="LfXdkUzR0KYtuj1hgcs3-13" target="LfXdkUzR0KYtuj1hgcs3-1" edge="1">
                    <mxGeometry relative="1" as="geometry">
                        <Array as="points">
                            <mxPoint x="530" y="430"/>
                            <mxPoint x="530" y="500"/>
                            <mxPoint x="455" y="500"/>
                        </Array>
                    </mxGeometry>
                </mxCell>
                <mxCell id="LfXdkUzR0KYtuj1hgcs3-13" value="Control Data" style="ellipse;whiteSpace=wrap;html=1;aspect=fixed;" parent="1" vertex="1">
                    <mxGeometry x="560" y="390" width="80" height="80" as="geometry"/>
                </mxCell>
                <mxCell id="LfXdkUzR0KYtuj1hgcs3-38" style="edgeStyle=orthogonalEdgeStyle;rounded=0;orthogonalLoop=1;jettySize=auto;html=1;exitX=0;exitY=0.5;exitDx=0;exitDy=0;entryX=1;entryY=0.5;entryDx=0;entryDy=0;" parent="1" source="LfXdkUzR0KYtuj1hgcs3-14" target="LfXdkUzR0KYtuj1hgcs3-5" edge="1">
                    <mxGeometry relative="1" as="geometry"/>
                </mxCell>
                <mxCell id="LfXdkUzR0KYtuj1hgcs3-53" style="edgeStyle=orthogonalEdgeStyle;orthogonalLoop=1;jettySize=auto;html=1;exitX=0.5;exitY=0;exitDx=0;exitDy=0;entryX=0.5;entryY=1;entryDx=0;entryDy=0;rounded=1;" parent="1" source="LfXdkUzR0KYtuj1hgcs3-14" target="LfXdkUzR0KYtuj1hgcs3-7" edge="1">
                    <mxGeometry relative="1" as="geometry">
                        <Array as="points">
                            <mxPoint x="250" y="490"/>
                            <mxPoint x="100" y="490"/>
                        </Array>
                    </mxGeometry>
                </mxCell>
                <mxCell id="LfXdkUzR0KYtuj1hgcs3-54" style="edgeStyle=orthogonalEdgeStyle;orthogonalLoop=1;jettySize=auto;html=1;exitX=1;exitY=0;exitDx=0;exitDy=0;entryX=0;entryY=0.5;entryDx=0;entryDy=0;rounded=1;" parent="1" source="LfXdkUzR0KYtuj1hgcs3-14" target="LfXdkUzR0KYtuj1hgcs3-6" edge="1">
                    <mxGeometry relative="1" as="geometry">
                        <mxPoint x="350" y="280" as="targetPoint"/>
                        <Array as="points">
                            <mxPoint x="278" y="490"/>
                            <mxPoint x="510" y="490"/>
                            <mxPoint x="510" y="310"/>
                        </Array>
                    </mxGeometry>
                </mxCell>
                <mxCell id="LfXdkUzR0KYtuj1hgcs3-14" value="Final Data" style="ellipse;whiteSpace=wrap;html=1;aspect=fixed;" parent="1" vertex="1">
                    <mxGeometry x="210" y="510" width="80" height="80" as="geometry"/>
                </mxCell>
                <mxCell id="14" style="edgeStyle=none;rounded=1;html=1;exitX=1;exitY=0.5;exitDx=0;exitDy=0;entryX=0.25;entryY=0;entryDx=0;entryDy=0;" parent="1" source="LfXdkUzR0KYtuj1hgcs3-15" target="LfXdkUzR0KYtuj1hgcs3-1" edge="1">
                    <mxGeometry relative="1" as="geometry">
                        <mxPoint x="300" y="430.2352941176471" as="targetPoint"/>
                        <Array as="points">
                            <mxPoint x="340" y="430"/>
                            <mxPoint x="340" y="500"/>
                            <mxPoint x="395" y="500"/>
                        </Array>
                    </mxGeometry>
                </mxCell>
                <mxCell id="LfXdkUzR0KYtuj1hgcs3-15" value="CAN RX Data" style="ellipse;whiteSpace=wrap;html=1;aspect=fixed;" parent="1" vertex="1">
                    <mxGeometry x="210" y="390" width="80" height="80" as="geometry"/>
                </mxCell>
                <mxCell id="LfXdkUzR0KYtuj1hgcs3-34" style="edgeStyle=orthogonalEdgeStyle;rounded=0;orthogonalLoop=1;jettySize=auto;html=1;exitX=1;exitY=0.5;exitDx=0;exitDy=0;entryX=0;entryY=0.5;entryDx=0;entryDy=0;" parent="1" source="LfXdkUzR0KYtuj1hgcs3-16" target="LfXdkUzR0KYtuj1hgcs3-17" edge="1">
                    <mxGeometry relative="1" as="geometry"/>
                </mxCell>
                <mxCell id="LfXdkUzR0KYtuj1hgcs3-16" value="Parsed Data" style="ellipse;whiteSpace=wrap;html=1;aspect=fixed;" parent="1" vertex="1">
                    <mxGeometry x="560" y="510" width="80" height="80" as="geometry"/>
                </mxCell>
                <mxCell id="eDZ-QSar3grSILTCuzSm-8" style="edgeStyle=orthogonalEdgeStyle;rounded=0;orthogonalLoop=1;jettySize=auto;html=1;entryX=0;entryY=0.5;entryDx=0;entryDy=0;" parent="1" source="LfXdkUzR0KYtuj1hgcs3-17" target="eDZ-QSar3grSILTCuzSm-7" edge="1">
                    <mxGeometry relative="1" as="geometry"/>
                </mxCell>
                <mxCell id="eDZ-QSar3grSILTCuzSm-9" style="edgeStyle=orthogonalEdgeStyle;rounded=0;orthogonalLoop=1;jettySize=auto;html=1;exitX=0.5;exitY=1;exitDx=0;exitDy=0;entryX=0.5;entryY=0;entryDx=0;entryDy=0;" parent="1" source="LfXdkUzR0KYtuj1hgcs3-17" target="eDZ-QSar3grSILTCuzSm-4" edge="1">
                    <mxGeometry relative="1" as="geometry"/>
                </mxCell>
                <mxCell id="eDZ-QSar3grSILTCuzSm-10" style="edgeStyle=orthogonalEdgeStyle;orthogonalLoop=1;jettySize=auto;html=1;exitX=1;exitY=0.75;exitDx=0;exitDy=0;entryX=0;entryY=0.5;entryDx=0;entryDy=0;rounded=1;" parent="1" source="LfXdkUzR0KYtuj1hgcs3-17" target="eDZ-QSar3grSILTCuzSm-5" edge="1">
                    <mxGeometry relative="1" as="geometry"/>
                </mxCell>
                <mxCell id="eDZ-QSar3grSILTCuzSm-11" style="edgeStyle=orthogonalEdgeStyle;orthogonalLoop=1;jettySize=auto;html=1;exitX=0;exitY=0.75;exitDx=0;exitDy=0;entryX=1;entryY=0.5;entryDx=0;entryDy=0;rounded=1;" parent="1" source="LfXdkUzR0KYtuj1hgcs3-17" target="eDZ-QSar3grSILTCuzSm-6" edge="1">
                    <mxGeometry relative="1" as="geometry">
                        <Array as="points">
                            <mxPoint x="670" y="565"/>
                            <mxPoint x="670" y="660"/>
                        </Array>
                    </mxGeometry>
                </mxCell>
                <mxCell id="LfXdkUzR0KYtuj1hgcs3-17" value="Control" style="rounded=1;whiteSpace=wrap;html=1;" parent="1" vertex="1">
                    <mxGeometry x="690" y="520" width="120" height="60" as="geometry"/>
                </mxCell>
                <mxCell id="9" style="edgeStyle=none;html=1;exitX=0.5;exitY=1;exitDx=0;exitDy=0;entryX=0;entryY=0;entryDx=0;entryDy=0;rounded=1;" parent="1" source="eDZ-QSar3grSILTCuzSm-1" target="LfXdkUzR0KYtuj1hgcs3-13" edge="1">
                    <mxGeometry relative="1" as="geometry">
                        <Array as="points">
                            <mxPoint x="600" y="850"/>
                            <mxPoint x="1200" y="850"/>
                            <mxPoint x="1200" y="370"/>
                            <mxPoint x="572" y="370"/>
                        </Array>
                    </mxGeometry>
                </mxCell>
                <mxCell id="eDZ-QSar3grSILTCuzSm-1" value="Battery" style="rounded=1;whiteSpace=wrap;html=1;" parent="1" vertex="1">
                    <mxGeometry x="540" y="740" width="120" height="60" as="geometry"/>
                </mxCell>
                <mxCell id="8" style="edgeStyle=none;html=1;entryX=1;entryY=0;entryDx=0;entryDy=0;rounded=1;" parent="1" source="eDZ-QSar3grSILTCuzSm-2" target="LfXdkUzR0KYtuj1hgcs3-13" edge="1">
                    <mxGeometry relative="1" as="geometry">
                        <Array as="points">
                            <mxPoint x="750" y="830"/>
                            <mxPoint x="1170" y="830"/>
                            <mxPoint x="1170" y="400"/>
                        </Array>
                    </mxGeometry>
                </mxCell>
                <mxCell id="eDZ-QSar3grSILTCuzSm-2" value="MPPT" style="rounded=1;whiteSpace=wrap;html=1;" parent="1" vertex="1">
                    <mxGeometry x="690" y="740" width="120" height="60" as="geometry"/>
                </mxCell>
                <mxCell id="6" style="edgeStyle=none;html=1;entryX=1;entryY=0.5;entryDx=0;entryDy=0;rounded=1;" parent="1" source="eDZ-QSar3grSILTCuzSm-3" target="LfXdkUzR0KYtuj1hgcs3-13" edge="1">
                    <mxGeometry relative="1" as="geometry">
                        <mxPoint x="1160" y="770" as="targetPoint"/>
                        <Array as="points">
                            <mxPoint x="1140" y="770"/>
                            <mxPoint x="1140" y="430"/>
                        </Array>
                    </mxGeometry>
                </mxCell>
                <mxCell id="eDZ-QSar3grSILTCuzSm-3" value="MC" style="rounded=1;whiteSpace=wrap;html=1;" parent="1" vertex="1">
                    <mxGeometry x="840" y="740" width="120" height="60" as="geometry"/>
                </mxCell>
                <mxCell id="eDZ-QSar3grSILTCuzSm-15" style="edgeStyle=orthogonalEdgeStyle;rounded=0;orthogonalLoop=1;jettySize=auto;html=1;entryX=0.5;entryY=0;entryDx=0;entryDy=0;" parent="1" source="eDZ-QSar3grSILTCuzSm-4" target="eDZ-QSar3grSILTCuzSm-2" edge="1">
                    <mxGeometry relative="1" as="geometry">
                        <mxPoint x="750" y="730" as="targetPoint"/>
                    </mxGeometry>
                </mxCell>
                <mxCell id="eDZ-QSar3grSILTCuzSm-4" value="MPPT Data" style="ellipse;whiteSpace=wrap;html=1;aspect=fixed;" parent="1" vertex="1">
                    <mxGeometry x="710" y="620" width="80" height="80" as="geometry"/>
                </mxCell>
                <mxCell id="eDZ-QSar3grSILTCuzSm-16" style="edgeStyle=orthogonalEdgeStyle;rounded=0;orthogonalLoop=1;jettySize=auto;html=1;exitX=0.5;exitY=1;exitDx=0;exitDy=0;entryX=0.5;entryY=0;entryDx=0;entryDy=0;" parent="1" source="eDZ-QSar3grSILTCuzSm-5" target="eDZ-QSar3grSILTCuzSm-3" edge="1">
                    <mxGeometry relative="1" as="geometry"/>
                </mxCell>
                <mxCell id="eDZ-QSar3grSILTCuzSm-5" value="MC Data" style="ellipse;whiteSpace=wrap;html=1;aspect=fixed;" parent="1" vertex="1">
                    <mxGeometry x="860" y="620" width="80" height="80" as="geometry"/>
                </mxCell>
                <mxCell id="eDZ-QSar3grSILTCuzSm-14" style="edgeStyle=orthogonalEdgeStyle;rounded=0;orthogonalLoop=1;jettySize=auto;html=1;exitX=0.5;exitY=1;exitDx=0;exitDy=0;entryX=0.5;entryY=0;entryDx=0;entryDy=0;" parent="1" source="eDZ-QSar3grSILTCuzSm-6" target="eDZ-QSar3grSILTCuzSm-1" edge="1">
                    <mxGeometry relative="1" as="geometry"/>
                </mxCell>
                <mxCell id="eDZ-QSar3grSILTCuzSm-6" value="Battery Data" style="ellipse;whiteSpace=wrap;html=1;aspect=fixed;" parent="1" vertex="1">
                    <mxGeometry x="560" y="620" width="80" height="80" as="geometry"/>
                </mxCell>
                <mxCell id="eDZ-QSar3grSILTCuzSm-13" style="edgeStyle=orthogonalEdgeStyle;rounded=0;orthogonalLoop=1;jettySize=auto;html=1;entryX=0;entryY=0.5;entryDx=0;entryDy=0;" parent="1" source="eDZ-QSar3grSILTCuzSm-7" target="eDZ-QSar3grSILTCuzSm-12" edge="1">
                    <mxGeometry relative="1" as="geometry"/>
                </mxCell>
                <mxCell id="eDZ-QSar3grSILTCuzSm-7" value="Peripherals Data" style="ellipse;whiteSpace=wrap;html=1;aspect=fixed;" parent="1" vertex="1">
                    <mxGeometry x="860" y="510" width="80" height="80" as="geometry"/>
                </mxCell>
                <mxCell id="5" style="edgeStyle=none;html=1;entryX=1;entryY=1;entryDx=0;entryDy=0;rounded=1;" parent="1" source="eDZ-QSar3grSILTCuzSm-12" target="LfXdkUzR0KYtuj1hgcs3-13" edge="1">
                    <mxGeometry relative="1" as="geometry">
                        <Array as="points">
                            <mxPoint x="1050" y="458"/>
                        </Array>
                    </mxGeometry>
                </mxCell>
                <mxCell id="eDZ-QSar3grSILTCuzSm-12" value="Peripherals" style="rounded=1;whiteSpace=wrap;html=1;" parent="1" vertex="1">
                    <mxGeometry x="990" y="520" width="120" height="60" as="geometry"/>
                </mxCell>
                <mxCell id="10" value="CAN TX" style="rounded=1;whiteSpace=wrap;html=1;" parent="1" vertex="1">
                    <mxGeometry x="365" y="280" width="120" height="60" as="geometry"/>
                </mxCell>
                <mxCell id="13" style="edgeStyle=none;rounded=0;html=1;exitX=0.5;exitY=0;exitDx=0;exitDy=0;entryX=0.5;entryY=1;entryDx=0;entryDy=0;" parent="1" source="11" target="10" edge="1">
                    <mxGeometry relative="1" as="geometry"/>
                </mxCell>
                <mxCell id="11" value="CAN TX Data" style="ellipse;whiteSpace=wrap;html=1;aspect=fixed;" parent="1" vertex="1">
                    <mxGeometry x="385" y="390" width="80" height="80" as="geometry"/>
                </mxCell>
            </root>
        </mxGraphModel>
    </diagram>
</mxfile>